<svg xmlns="http://www.w3.org/2000/svg" viewBox="0 0 140 118">
  <defs><radialGradient id="p" cx=".58" cy=".35" r=".7"><stop stop-color="#ffe988"/><stop offset=".62" stop-color="#ffc85d"/><stop offset="1" stop-color="#f4a33a"/></radialGradient></defs>
  <path fill="#ffa53f" opacity=".65" d="M35 59 8 43c7 11 7 23 0 34l27-18Z"/>
  <path fill="#ffb347" opacity=".55" d="M92 77c12 8 23 9 34 4-12-4-19-10-26-19Z"/>
  <path fill="url(#p)" stroke="#9c6b22" stroke-opacity=".22" stroke-width="2.5" d="M26 61c0-31 24-51 58-47 27 3 47 19 52 43-5 31-29 48-64 45-29-2-46-18-46-41Z"/>
  <path fill="#fff6bb" fill-opacity=".75" d="M48 78c21 13 53 13 74-3-16 23-61 28-86 2 3-1 8 0 12 1Z"/>
  <g fill="#9d7832" opacity=".45"><circle cx="55" cy="42" r="4"/><circle cx="75" cy="32" r="3.5"/><circle cx="96" cy="45" r="4.3"/><circle cx="62" cy="67" r="3.2"/><circle cx="89" cy="70" r="3.8"/></g>
  <circle cx="108" cy="48" r="7" fill="#101923"/><circle cx="110" cy="45" r="2.4" fill="#fff"/>
  <path fill="none" stroke="#81551c" stroke-width="3" stroke-linecap="round" opacity=".55" d="M116 65c5 4 9 4 14 0"/>
</svg>
